<svg data-v-423bf9ae="" xmlns="http://www.w3.org/2000/svg" viewBox="0 0 455.2702888924463 60" class="font"><!----><!----><defs data-v-423bf9ae=""><linearGradient data-v-423bf9ae="" gradientTransform="rotate(25)" id="a94be622-9d57-4877-8020-ecac4834604e" x1="0%" y1="0%" x2="100%" y2="0%"><stop data-v-423bf9ae="" offset="0%" style="stop-color: rgb(214, 65, 63); stop-opacity: 1;"></stop><stop data-v-423bf9ae="" offset="100%" style="stop-color: rgb(66, 133, 211); stop-opacity: 1;"></stop></linearGradient></defs><g data-v-423bf9ae="" id="12b2834e-758f-4fcb-9915-e0bfb5f08ad0" fill="url(#a94be622-9d57-4877-8020-ecac4834604e)" transform="matrix(5.7915059834320255,0,0,5.7915059834320255,-2.8957579726071003,-16.216216239030565)"><path d="M6.12 3.78L6.12 9.97L6.12 9.97Q6.12 11.47 5.35 12.31L5.35 12.31L5.35 12.31Q4.58 13.16 3.18 13.16L3.18 13.16L3.18 13.16Q1.90 13.16 1.20 12.51L1.20 12.51L1.20 12.51Q0.50 11.86 0.50 10.74L0.50 10.74L0.50 10.74Q0.50 10.37 0.56 10.08L0.56 10.08L1.22 9.93L1.22 9.93Q1.18 10.26 1.18 10.57L1.18 10.57L1.18 10.57Q1.18 12.52 3.16 12.52L3.16 12.52L3.16 12.52Q4.34 12.52 4.88 11.83L4.88 11.83L4.88 11.83Q5.42 11.14 5.42 9.81L5.42 9.81L5.42 3.78L6.12 3.78ZM14.87 13.02L11.48 8.04L9.63 9.91L9.63 13.02L8.93 13.02L8.93 3.78L9.63 3.78L9.63 8.96L14.70 3.78L15.62 3.78L11.97 7.52L15.72 13.02L14.87 13.02ZM23.74 13.16L23.74 13.16Q22.68 13.16 21.90 12.74L21.90 12.74L21.90 12.74Q21.11 12.32 20.82 11.52L20.82 11.52L21.39 11.14L21.39 11.14Q21.60 11.84 22.25 12.19L22.25 12.19L22.25 12.19Q22.89 12.54 23.83 12.54L23.83 12.54L23.83 12.54Q24.78 12.54 25.32 12.18L25.32 12.18L25.32 12.18Q25.86 11.82 25.86 11.21L25.86 11.21L25.86 11.21Q25.86 10.70 25.40 10.39L25.40 10.39L25.40 10.39Q24.93 10.08 23.77 9.87L23.77 9.87L23.77 9.87Q22.30 9.60 21.70 9.16L21.70 9.16L21.70 9.16Q21.10 8.71 21.10 7.88L21.10 7.88L21.10 7.88Q21.10 7.34 21.43 6.87L21.43 6.87L21.43 6.87Q21.77 6.41 22.39 6.15L22.39 6.15L22.39 6.15Q23.00 5.88 23.79 5.88L23.79 5.88L23.79 5.88Q24.89 5.88 25.56 6.30L25.56 6.30L25.56 6.30Q26.22 6.72 26.47 7.59L26.47 7.59L25.87 7.94L25.87 7.94Q25.48 6.50 23.79 6.50L23.79 6.50L23.79 6.50Q23.23 6.50 22.77 6.68L22.77 6.68L22.77 6.68Q22.32 6.86 22.06 7.16L22.06 7.16L22.06 7.16Q21.80 7.46 21.80 7.81L21.80 7.81L21.80 7.81Q21.80 8.39 22.27 8.71L22.27 8.71L22.27 8.71Q22.75 9.03 23.95 9.24L23.95 9.24L23.95 9.24Q25.38 9.48 25.97 9.93L25.97 9.93L25.97 9.93Q26.56 10.37 26.56 11.19L26.56 11.19L26.56 11.19Q26.56 12.08 25.80 12.62L25.80 12.62L25.80 12.62Q25.03 13.16 23.74 13.16L23.74 13.16ZM31.42 5.88L31.42 5.88Q32.97 5.88 33.86 6.85L33.86 6.85L33.86 6.85Q34.75 7.83 34.75 9.52L34.75 9.52L34.75 9.52Q34.75 11.21 33.86 12.19L33.86 12.19L33.86 12.19Q32.97 13.16 31.42 13.16L31.42 13.16L31.42 13.16Q29.86 13.16 28.97 12.19L28.97 12.19L28.97 12.19Q28.08 11.21 28.08 9.52L28.08 9.52L28.08 9.52Q28.08 7.83 28.97 6.85L28.97 6.85L28.97 6.85Q29.86 5.88 31.42 5.88L31.42 5.88ZM31.42 6.48L31.42 6.48Q30.18 6.48 29.48 7.29L29.48 7.29L29.48 7.29Q28.78 8.11 28.78 9.52L28.78 9.52L28.78 9.52Q28.78 10.93 29.48 11.75L29.48 11.75L29.48 11.75Q30.18 12.56 31.42 12.56L31.42 12.56L31.42 12.56Q32.65 12.56 33.35 11.75L33.35 11.75L33.35 11.75Q34.05 10.93 34.05 9.52L34.05 9.52L34.05 9.52Q34.05 8.11 33.35 7.29L33.35 7.29L33.35 7.29Q32.65 6.48 31.42 6.48L31.42 6.48ZM37.44 2.80L37.44 11.33L37.44 11.33Q37.44 11.97 37.64 12.24L37.64 12.24L37.64 12.24Q37.84 12.50 38.32 12.50L38.32 12.50L38.32 12.50Q38.60 12.50 38.79 12.46L38.79 12.46L38.79 12.46Q38.99 12.42 39.24 12.31L39.24 12.31L39.14 12.98L39.14 12.98Q38.75 13.16 38.22 13.16L38.22 13.16L38.22 13.16Q37.46 13.16 37.10 12.73L37.10 12.73L37.10 12.73Q36.74 12.31 36.74 11.40L36.74 11.40L36.74 2.80L37.44 2.80ZM45.71 6.02L46.41 6.02L46.41 13.02L45.78 13.02L45.75 11.63L45.75 11.63Q45.40 12.38 44.70 12.77L44.70 12.77L44.70 12.77Q44.00 13.16 43.05 13.16L43.05 13.16L43.05 13.16Q41.90 13.16 41.22 12.52L41.22 12.52L41.22 12.52Q40.53 11.89 40.53 10.64L40.53 10.64L40.53 6.02L41.23 6.02L41.23 10.47L41.23 10.47Q41.23 12.54 43.16 12.54L43.16 12.54L43.16 12.54Q43.93 12.54 44.51 12.21L44.51 12.21L44.51 12.21Q45.09 11.87 45.40 11.30L45.40 11.30L45.40 11.30Q45.71 10.72 45.71 10.04L45.71 10.04L45.71 6.02ZM52.51 12.00L52.77 12.57L52.77 12.57Q52.49 12.85 52.08 13.01L52.08 13.01L52.08 13.01Q51.67 13.16 51.18 13.16L51.18 13.16L51.18 13.16Q50.33 13.16 49.85 12.69L49.85 12.69L49.85 12.69Q49.36 12.22 49.36 11.27L49.36 11.27L49.36 6.62L47.96 6.62L47.96 6.02L49.36 6.02L49.36 4.27L50.06 4.07L50.06 6.02L52.70 6.02L52.70 6.62L50.06 6.62L50.06 11.17L50.06 11.17Q50.06 11.83 50.38 12.17L50.38 12.17L50.38 12.17Q50.69 12.52 51.30 12.52L51.30 12.52L51.30 12.52Q52.00 12.52 52.51 12.00L52.51 12.00ZM54.53 4.66L54.53 4.66Q54.26 4.66 54.10 4.50L54.10 4.50L54.10 4.50Q53.94 4.34 53.94 4.07L53.94 4.07L53.94 4.07Q53.94 3.81 54.10 3.65L54.10 3.65L54.10 3.65Q54.26 3.49 54.53 3.49L54.53 3.49L54.53 3.49Q54.80 3.49 54.96 3.65L54.96 3.65L54.96 3.65Q55.12 3.81 55.12 4.07L55.12 4.07L55.12 4.07Q55.12 4.34 54.96 4.50L54.96 4.50L54.96 4.50Q54.80 4.66 54.53 4.66L54.53 4.66ZM54.88 6.02L54.88 13.02L54.18 13.02L54.18 6.02L54.88 6.02ZM60.27 5.88L60.27 5.88Q61.82 5.88 62.71 6.85L62.71 6.85L62.71 6.85Q63.60 7.83 63.60 9.52L63.60 9.52L63.60 9.52Q63.60 11.21 62.71 12.19L62.71 12.19L62.71 12.19Q61.82 13.16 60.27 13.16L60.27 13.16L60.27 13.16Q58.72 13.16 57.83 12.19L57.83 12.19L57.83 12.19Q56.94 11.21 56.94 9.52L56.94 9.52L56.94 9.52Q56.94 7.83 57.83 6.85L57.83 6.85L57.83 6.85Q58.72 5.88 60.27 5.88L60.27 5.88ZM60.27 6.48L60.27 6.48Q59.04 6.48 58.34 7.29L58.34 7.29L58.34 7.29Q57.64 8.11 57.64 9.52L57.64 9.52L57.64 9.52Q57.64 10.93 58.34 11.75L58.34 11.75L58.34 11.75Q59.04 12.56 60.27 12.56L60.27 12.56L60.27 12.56Q61.50 12.56 62.20 11.75L62.20 11.75L62.20 11.75Q62.90 10.93 62.90 9.52L62.90 9.52L62.90 9.52Q62.90 8.11 62.20 7.29L62.20 7.29L62.20 7.29Q61.50 6.48 60.27 6.48L60.27 6.48ZM68.92 5.88L68.92 5.88Q70.13 5.88 70.86 6.55L70.86 6.55L70.86 6.55Q71.60 7.22 71.60 8.48L71.60 8.48L71.60 13.02L70.90 13.02L70.90 8.71L70.90 8.71Q70.90 7.59 70.35 7.04L70.35 7.04L70.35 7.04Q69.80 6.50 68.85 6.50L68.85 6.50L68.85 6.50Q68.18 6.50 67.61 6.80L67.61 6.80L67.61 6.80Q67.03 7.11 66.69 7.70L66.69 7.70L66.69 7.70Q66.35 8.29 66.35 9.07L66.35 9.07L66.35 13.02L65.65 13.02L65.65 6.02L66.28 6.02L66.30 7.43L66.30 7.43Q66.64 6.68 67.33 6.28L67.33 6.28L67.33 6.28Q68.03 5.88 68.92 5.88L68.92 5.88ZM76.30 13.16L76.30 13.16Q75.24 13.16 74.45 12.74L74.45 12.74L74.45 12.74Q73.67 12.32 73.37 11.52L73.37 11.52L73.95 11.14L73.95 11.14Q74.16 11.84 74.80 12.19L74.80 12.19L74.80 12.19Q75.45 12.54 76.38 12.54L76.38 12.54L76.38 12.54Q77.34 12.54 77.88 12.18L77.88 12.18L77.88 12.18Q78.41 11.82 78.41 11.21L78.41 11.21L78.41 11.21Q78.41 10.70 77.95 10.39L77.95 10.39L77.95 10.39Q77.49 10.08 76.33 9.87L76.33 9.87L76.33 9.87Q74.86 9.60 74.26 9.16L74.26 9.16L74.26 9.16Q73.65 8.71 73.65 7.88L73.65 7.88L73.65 7.88Q73.65 7.34 73.99 6.87L73.99 6.87L73.99 6.87Q74.33 6.41 74.94 6.15L74.94 6.15L74.94 6.15Q75.56 5.88 76.34 5.88L76.34 5.88L76.34 5.88Q77.45 5.88 78.11 6.30L78.11 6.30L78.11 6.30Q78.78 6.72 79.03 7.59L79.03 7.59L78.43 7.94L78.43 7.94Q78.04 6.50 76.34 6.50L76.34 6.50L76.34 6.50Q75.78 6.50 75.33 6.68L75.33 6.68L75.33 6.68Q74.87 6.86 74.61 7.16L74.61 7.16L74.61 7.16Q74.35 7.46 74.35 7.81L74.35 7.81L74.35 7.81Q74.35 8.39 74.83 8.71L74.83 8.71L74.83 8.71Q75.31 9.03 76.51 9.24L76.51 9.24L76.51 9.24Q77.94 9.48 78.53 9.93L78.53 9.93L78.53 9.93Q79.11 10.37 79.11 11.19L79.11 11.19L79.11 11.19Q79.11 12.08 78.35 12.62L78.35 12.62L78.35 12.62Q77.59 13.16 76.30 13.16L76.30 13.16Z"></path></g><!----><!----></svg>